<svg width="20" height="20" viewBox="0 0 20 20" fill="none" xmlns="http://www.w3.org/2000/svg">
<path d="M5.55556 0H3.33333C2.89576 7.10644e-05 2.46251 0.0865844 2.05846 0.254571C1.65441 0.422558 1.28753 0.66871 0.978889 0.978889C0.66871 1.28753 0.422558 1.65441 0.254571 2.05846C0.0865844 2.46251 7.10644e-05 2.89576 0 3.33333V5.55556C0 6.47222 0.374444 7.30556 0.978889 7.91C1.28753 8.22018 1.65441 8.46633 2.05846 8.63432C2.46251 8.8023 2.89576 8.88882 3.33333 8.88889H5.55556C5.99313 8.88882 6.42638 8.8023 6.83043 8.63432C7.23448 8.46633 7.60136 8.22018 7.91 7.91C8.22018 7.60136 8.46633 7.23448 8.63432 6.83043C8.8023 6.42638 8.88882 5.99313 8.88889 5.55556V3.33333C8.88882 2.89576 8.8023 2.46251 8.63432 2.05846C8.46633 1.65441 8.22018 1.28753 7.91 0.978889C7.60136 0.66871 7.23448 0.422558 6.83043 0.254571C6.42638 0.0865844 5.99313 7.10644e-05 5.55556 0ZM16.6667 0H14.4444C14.0069 7.10644e-05 13.5736 0.0865844 13.1696 0.254571C12.7655 0.422558 12.3986 0.66871 12.09 0.978889C11.7798 1.28753 11.5337 1.65441 11.3657 2.05846C11.1977 2.46251 11.1112 2.89576 11.1111 3.33333V5.55556C11.1111 6.47222 11.4856 7.30556 12.09 7.91C12.3986 8.22018 12.7655 8.46633 13.1696 8.63432C13.5736 8.8023 14.0069 8.88882 14.4444 8.88889H16.6667C17.1042 8.88882 17.5375 8.8023 17.9415 8.63432C18.3456 8.46633 18.7125 8.22018 19.0211 7.91C19.3313 7.60136 19.5774 7.23448 19.7454 6.83043C19.9134 6.42638 19.9999 5.99313 20 5.55556V3.33333C19.9999 2.89576 19.9134 2.46251 19.7454 2.05846C19.5774 1.65441 19.3313 1.28753 19.0211 0.978889C18.7125 0.66871 18.3456 0.422558 17.9415 0.254571C17.5375 0.0865844 17.1042 7.10644e-05 16.6667 0ZM5.55556 11.1111H3.33333C2.89576 11.1112 2.46251 11.1977 2.05846 11.3657C1.65441 11.5337 1.28753 11.7798 0.978889 12.09C0.66871 12.3986 0.422558 12.7655 0.254571 13.1696C0.0865844 13.5736 7.10644e-05 14.0069 0 14.4444V16.6667C0 17.5833 0.374444 18.4167 0.978889 19.0211C1.28753 19.3313 1.65441 19.5774 2.05846 19.7454C2.46251 19.9134 2.89576 19.9999 3.33333 20H5.55556C5.99313 19.9999 6.42638 19.9134 6.83043 19.7454C7.23448 19.5774 7.60136 19.3313 7.91 19.0211C8.22018 18.7125 8.46633 18.3456 8.63432 17.9415C8.8023 17.5375 8.88882 17.1042 8.88889 16.6667V14.4444C8.88882 14.0069 8.8023 13.5736 8.63432 13.1696C8.46633 12.7655 8.22018 12.3986 7.91 12.09C7.60136 11.7798 7.23448 11.5337 6.83043 11.3657C6.42638 11.1977 5.99313 11.1112 5.55556 11.1111ZM16.6667 11.1111H14.4444C14.0069 11.1112 13.5736 11.1977 13.1696 11.3657C12.7655 11.5337 12.3986 11.7798 12.09 12.09C11.7798 12.3986 11.5337 12.7655 11.3657 13.1696C11.1977 13.5736 11.1112 14.0069 11.1111 14.4444V16.6667C11.1111 17.5833 11.4856 18.4167 12.09 19.0211C12.3986 19.3313 12.7655 19.5774 13.1696 19.7454C13.5736 19.9134 14.0069 19.9999 14.4444 20H16.6667C17.1042 19.9999 17.5375 19.9134 17.9415 19.7454C18.3456 19.5774 18.7125 19.3313 19.0211 19.0211C19.3313 18.7125 19.5774 18.3456 19.7454 17.9415C19.9134 17.5375 19.9999 17.1042 20 16.6667V14.4444C19.9999 14.0069 19.9134 13.5736 19.7454 13.1696C19.5774 12.7655 19.3313 12.3986 19.0211 12.09C18.7125 11.7798 18.3456 11.5337 17.9415 11.3657C17.5375 11.1977 17.1042 11.1112 16.6667 11.1111Z" fill="white"/>
</svg>
