<svg width="15" height="19" viewBox="0 0 15 19" fill="none" xmlns="http://www.w3.org/2000/svg">
<path d="M10.6295 4.71254C10.6295 4.88673 10.6176 5.06092 10.5958 5.23313C10.6057 5.16385 10.6156 5.09259 10.6235 5.02331C10.576 5.36773 10.485 5.70226 10.3524 6.02293C10.3781 5.95959 10.4058 5.89625 10.4315 5.8329C10.2989 6.14566 10.1287 6.43862 9.92084 6.70782L10.0455 6.54749C9.83968 6.81273 9.60017 7.05224 9.33492 7.25811L9.49526 7.1334C9.22605 7.33926 8.9331 7.51148 8.62034 7.6441C8.68369 7.61837 8.74703 7.59065 8.81037 7.56492C8.4897 7.69754 8.15517 7.7886 7.81075 7.83611C7.88003 7.82621 7.95129 7.81631 8.02057 7.80839C7.67417 7.85392 7.32578 7.85392 6.97938 7.80839C7.04866 7.81829 7.11992 7.82819 7.1892 7.83611C6.84478 7.7886 6.51025 7.69754 6.18958 7.56492C6.25292 7.59065 6.31627 7.61837 6.37961 7.6441C6.06685 7.51148 5.7739 7.34124 5.50469 7.1334L5.66503 7.25811C5.39978 7.05224 5.16027 6.81273 4.9544 6.54749L5.07911 6.70782C4.87325 6.43862 4.70104 6.14566 4.56841 5.8329C4.59414 5.89625 4.62186 5.95959 4.64759 6.02293C4.51497 5.70226 4.42391 5.36773 4.37641 5.02331C4.3863 5.09259 4.3962 5.16385 4.40412 5.23313C4.35859 4.88673 4.35859 4.53835 4.40412 4.19194C4.39422 4.26122 4.38432 4.33248 4.37641 4.40176C4.42391 4.05734 4.51497 3.72281 4.64759 3.40214C4.62186 3.46548 4.59414 3.52883 4.56841 3.59217C4.70104 3.27942 4.87127 2.98646 5.07911 2.71725L4.9544 2.87759C5.16027 2.61234 5.39978 2.37283 5.66503 2.16697L5.50469 2.29167C5.7739 2.08581 6.06685 1.9136 6.37961 1.78097C6.31627 1.80671 6.25292 1.83442 6.18958 1.86015C6.51025 1.72753 6.84478 1.63647 7.1892 1.58897C7.11992 1.59886 7.04866 1.60876 6.97938 1.61668C7.32578 1.57115 7.67417 1.57115 8.02057 1.61668C7.95129 1.60678 7.88003 1.59689 7.81075 1.58897C8.15517 1.63647 8.4897 1.72753 8.81037 1.86015C8.74703 1.83442 8.68369 1.80671 8.62034 1.78097C8.9331 1.9136 9.22605 2.08383 9.49526 2.29167L9.33492 2.16697C9.60017 2.37283 9.83968 2.61234 10.0455 2.87759L9.92084 2.71725C10.1267 2.98646 10.2989 3.27942 10.4315 3.59217C10.4058 3.52883 10.3781 3.46548 10.3524 3.40214C10.485 3.72281 10.576 4.05734 10.6235 4.40176C10.6136 4.33248 10.6038 4.26122 10.5958 4.19194C10.6176 4.36415 10.6275 4.53835 10.6295 4.71254C10.6315 5.12624 10.9917 5.52411 11.4213 5.50432C11.8488 5.48452 12.215 5.15593 12.213 4.71254C12.2091 3.76438 11.924 2.79445 11.3658 2.02247C11.2154 1.81462 11.0551 1.61074 10.8769 1.42665C10.6968 1.24058 10.4988 1.08025 10.293 0.923873C9.91886 0.638832 9.5012 0.42901 9.0578 0.266696C7.27036 -0.388502 5.11474 0.195435 3.9053 1.66815C3.73902 1.87005 3.58067 2.07987 3.44607 2.30553C3.31146 2.52921 3.20655 2.76674 3.10956 3.00823C2.92745 3.45559 2.83442 3.93066 2.79681 4.41166C2.72357 5.35388 2.96902 6.33766 3.45992 7.14528C3.93301 7.92518 4.64759 8.59424 5.48292 8.97231C5.72837 9.08316 5.97976 9.18609 6.24105 9.25933C6.50035 9.33059 6.76362 9.37018 7.03085 9.40185C7.51779 9.45925 8.01463 9.41966 8.49564 9.32267C10.3227 8.95054 11.8528 7.37687 12.1358 5.53005C12.1774 5.26084 12.2091 4.99164 12.2091 4.71848C12.2111 4.30477 11.8429 3.9069 11.4173 3.9267C10.9897 3.94055 10.6295 4.26914 10.6295 4.71254ZM13.2562 17.09H3.09966C2.65033 17.09 2.20099 17.094 1.75166 17.09C1.70217 17.09 1.65268 17.0861 1.60518 17.0801C1.67446 17.09 1.74572 17.0999 1.815 17.1078C1.73582 17.096 1.6606 17.0742 1.58736 17.0445C1.65071 17.0702 1.71405 17.0979 1.77739 17.1237C1.69821 17.09 1.62497 17.0465 1.55569 16.993L1.71603 17.1177C1.65664 17.0683 1.60122 17.0148 1.55371 16.9554L1.67842 17.1158C1.62497 17.0465 1.5834 16.9732 1.54777 16.8941C1.57351 16.9574 1.60122 17.0207 1.62695 17.0841C1.59726 17.0109 1.57747 16.9337 1.56361 16.8565C1.57351 16.9257 1.5834 16.997 1.59132 17.0663C1.55965 16.8268 1.58142 16.5734 1.58142 16.3319V15.4847C1.58142 15.2729 1.5933 15.0631 1.62101 14.8533C1.61112 14.9225 1.60122 14.9938 1.5933 15.0631C1.64873 14.6573 1.75562 14.2594 1.91595 13.8813C1.89022 13.9447 1.86251 14.008 1.83677 14.0714C1.99117 13.7111 2.18912 13.3726 2.42863 13.0619L2.30392 13.2222C2.54344 12.9154 2.81858 12.6382 3.12737 12.3987L2.96704 12.5234C3.27781 12.2839 3.6163 12.086 3.97656 11.9316C3.91321 11.9573 3.84987 11.985 3.78653 12.0108C4.1646 11.8524 4.56049 11.7435 4.96826 11.6881C4.89898 11.698 4.82772 11.7079 4.75844 11.7158C5.0514 11.6782 5.34238 11.6762 5.63731 11.6762H9.25971C9.58631 11.6762 9.91094 11.6743 10.2376 11.7158C10.1683 11.7059 10.097 11.696 10.0277 11.6881C10.4335 11.7435 10.8314 11.8504 11.2095 12.0108C11.1461 11.985 11.0828 11.9573 11.0194 11.9316C11.3797 12.086 11.7182 12.2839 12.029 12.5234L11.8686 12.3987C12.1754 12.6382 12.4526 12.9134 12.6921 13.2222L12.5674 13.0619C12.8069 13.3726 13.0048 13.7111 13.1592 14.0714C13.1335 14.008 13.1058 13.9447 13.08 13.8813C13.2384 14.2594 13.3473 14.6553 13.4027 15.0631C13.3928 14.9938 13.3829 14.9225 13.375 14.8533C13.4126 15.1521 13.4146 15.4491 13.4146 15.7499V16.7298C13.4146 16.8426 13.4185 16.9554 13.4047 17.0663C13.4146 16.997 13.4245 16.9257 13.4324 16.8565C13.4205 16.9356 13.3987 17.0109 13.369 17.0841C13.3948 17.0207 13.4225 16.9574 13.4482 16.8941C13.4146 16.9732 13.371 17.0465 13.3176 17.1158L13.4423 16.9554C13.3928 17.0148 13.3393 17.0702 13.28 17.1177L13.4403 16.993C13.371 17.0465 13.2978 17.088 13.2186 17.1237C13.2819 17.0979 13.3453 17.0702 13.4086 17.0445C13.3354 17.0742 13.2582 17.094 13.181 17.1078C13.2503 17.0979 13.3215 17.088 13.3908 17.0801C13.3473 17.0861 13.3017 17.088 13.2562 17.09C13.0523 17.092 12.8425 17.1771 12.696 17.3216C12.5594 17.4582 12.4545 17.6839 12.4644 17.8818C12.4842 18.3054 12.8128 18.6795 13.2562 18.6736C14.0262 18.6617 14.7032 18.1589 14.9288 17.4206C15.0179 17.1276 14.9981 16.8129 14.9981 16.512C14.9981 15.8232 15.0199 15.1403 14.9011 14.4574C14.7269 13.4577 14.2242 12.5175 13.5353 11.7792C12.8465 11.0408 11.9201 10.4985 10.9403 10.257C10.3781 10.1184 9.81197 10.0966 9.23793 10.0966H5.72639C5.13849 10.0966 4.55456 10.1243 3.9825 10.2768C3.01059 10.5341 2.09608 11.0824 1.42109 11.8267C0.740159 12.5769 0.247276 13.5191 0.0869409 14.5247C-0.0199493 15.1997 0.00182454 15.8766 0.00182454 16.5576C0.00182454 16.8703 -0.0159904 17.1969 0.0968381 17.4958C0.243317 17.8798 0.476892 18.1827 0.819337 18.4103C1.08656 18.5865 1.42505 18.6716 1.74176 18.6756C1.89616 18.6775 2.05055 18.6756 2.20495 18.6756H13.2582C13.6719 18.6756 14.0698 18.3113 14.05 17.8838C14.0302 17.4523 13.7016 17.09 13.2562 17.09Z" fill="white"/>
</svg>
